<svg width="15" height="16" viewBox="0 0 15 16" fill="none" xmlns="http://www.w3.org/2000/svg">
<path d="M5.12836 3.09616C5.19357 3.03085 5.27103 2.97903 5.35628 2.94368C5.44154 2.90833 5.53293 2.89014 5.62523 2.89014C5.71753 2.89014 5.80892 2.90833 5.89418 2.94368C5.97944 2.97903 6.05689 3.03085 6.12211 3.09616L10.1065 7.08053C10.1718 7.14575 10.2236 7.2232 10.259 7.30846C10.2943 7.39372 10.3125 7.48511 10.3125 7.57741C10.3125 7.6697 10.2943 7.76109 10.259 7.84635C10.2236 7.93161 10.1718 8.00906 10.1065 8.07428L6.1221 12.0587C6.05685 12.1239 5.97939 12.1757 5.89414 12.211C5.80888 12.2463 5.71751 12.2645 5.62523 12.2645C5.53295 12.2645 5.44158 12.2463 5.35632 12.211C5.27107 12.1757 5.19361 12.1239 5.12836 12.0587C5.0631 11.9934 5.01134 11.9159 4.97603 11.8307C4.94072 11.7454 4.92254 11.6541 4.92254 11.5618C4.92254 11.4695 4.94072 11.3781 4.97603 11.2929C5.01135 11.2076 5.0631 11.1302 5.12836 11.0649L8.61492 7.57741L5.12836 4.08991C5.06305 4.02469 5.01123 3.94724 4.97588 3.86198C4.94053 3.77672 4.92234 3.68533 4.92234 3.59303C4.92234 3.50073 4.94053 3.40934 4.97588 3.32408C5.01123 3.23883 5.06305 3.16137 5.12836 3.09616Z" fill="#333333"/>
</svg>
